<svg width="80" height="87" viewBox="0 0 80 87" fill="none" xmlns="http://www.w3.org/2000/svg">
<path d="M60 43.5C60 42.8784 59.6874 42.1296 58.7861 41.2871C57.8824 40.4424 56.4932 39.6129 54.6514 38.8848C50.9764 37.4319 45.7969 36.5 40 36.5C34.2031 36.5 29.0236 37.4319 25.3486 38.8848C23.5068 39.6129 22.1176 40.4424 21.2139 41.2871C20.3126 42.1296 20 42.8784 20 43.5C20 44.1216 20.3126 44.8704 21.2139 45.7129C22.1176 46.5576 23.5068 47.3871 25.3486 48.1152C29.0236 49.5681 34.2031 50.5 40 50.5C45.7969 50.5 50.9764 49.5681 54.6514 48.1152C56.4932 47.3871 57.8824 46.5576 58.7861 45.7129C59.6874 44.8704 60 44.1216 60 43.5ZM63 43.5C63 45.2255 62.1095 46.7129 60.835 47.9043C59.5628 49.0934 57.8027 50.0953 55.7539 50.9053C51.6474 52.5287 46.0771 53.5 40 53.5C33.9229 53.5 28.3526 52.5287 24.2461 50.9053C22.1973 50.0953 20.4372 49.0934 19.165 47.9043C17.8905 46.7129 17 45.2255 17 43.5C17 41.7744 17.8905 40.2871 19.165 39.0957C20.4372 37.9066 22.1973 36.9047 24.2461 36.0947C28.3526 34.4713 33.9229 33.5 40 33.5C46.0771 33.5 51.6474 34.4713 55.7539 36.0947C57.8027 36.9047 59.5628 37.9066 60.835 39.0957C62.1095 40.2871 63 41.7745 63 43.5Z" fill="#322D41"/>
</svg>
