<svg width="80" height="87" viewBox="0 0 80 87" fill="none" xmlns="http://www.w3.org/2000/svg">
<path d="M55.2901 20.6133C55.7797 19.9452 56.7186 19.8006 57.3868 20.2901C58.0549 20.7797 58.1995 21.7186 57.71 22.3868L41.8594 44.0235L56.9434 64.6133C57.433 65.2816 57.2875 66.2205 56.6192 66.71C55.9509 67.1995 55.0121 67.055 54.5225 66.3868L40.0001 46.5616L25.4776 66.3868C24.9881 67.055 24.0492 67.1995 23.3809 66.71C22.7126 66.2205 22.5671 65.2816 23.0567 64.6133L38.1397 44.0235L22.2901 22.3868C21.8006 21.7186 21.9452 20.7797 22.6133 20.2901C23.2816 19.8006 24.2204 19.9452 24.71 20.6133L40.0001 41.4844L55.2901 20.6133Z" fill="#322D41"/>
</svg>
