<svg width="401" height="398" viewBox="0 0 401 398" fill="none" xmlns="http://www.w3.org/2000/svg">
<path fill-rule="evenodd" clip-rule="evenodd" d="M107.912 160.061C117.692 158.974 124.677 151.357 127.66 142.975C129.263 138.468 129.598 134.005 128.714 130.569C127.852 127.216 125.899 124.965 122.803 124.188C119.321 123.314 116.961 124.007 115.179 125.514C113.254 127.141 111.708 129.969 110.559 133.892C108.455 141.072 107.978 150.808 107.912 160.061ZM105.5 134.179C105.64 133.623 105.789 133.076 105.945 132.541C107.204 128.247 109.098 124.359 112.075 121.843C115.195 119.206 119.199 118.328 123.973 119.526C129.133 120.821 132.168 124.698 133.37 129.372C134.55 133.963 134.025 139.426 132.189 144.586C128.531 154.865 119.225 165 105.5 165C91.775 165 82.4691 154.865 78.8114 144.586C76.9751 139.426 76.4496 133.963 77.63 129.372C78.8318 124.698 81.867 120.821 87.0269 119.526C91.8007 118.328 95.8049 119.206 98.9248 121.843C101.902 124.359 103.796 128.247 105.055 132.541C105.211 133.076 105.36 133.623 105.5 134.179ZM103.088 160.061C103.022 150.808 102.545 141.072 100.441 133.892C99.2916 129.969 97.7465 127.141 95.8212 125.514C94.039 124.007 91.6792 123.314 88.197 124.188C85.1009 124.965 83.148 127.216 82.2858 130.569C81.4022 134.005 81.7368 138.468 83.3405 142.975C86.323 151.357 93.308 158.974 103.088 160.061Z" fill="#EA9EBE"/>
<path fill-rule="evenodd" clip-rule="evenodd" d="M107.912 209.061C117.692 207.974 124.677 200.357 127.66 191.975C129.263 187.468 129.598 183.005 128.714 179.569C127.852 176.216 125.899 173.965 122.803 173.188C119.321 172.314 116.961 173.007 115.179 174.514C113.254 176.141 111.708 178.969 110.559 182.892C108.455 190.072 107.978 199.808 107.912 209.061ZM105.5 183.179C105.64 182.623 105.789 182.076 105.945 181.541C107.204 177.247 109.098 173.359 112.075 170.843C115.195 168.206 119.199 167.328 123.973 168.526C129.133 169.821 132.168 173.698 133.37 178.372C134.55 182.963 134.025 188.426 132.189 193.586C128.531 203.865 119.225 214 105.5 214C91.775 214 82.4691 203.865 78.8114 193.586C76.9751 188.426 76.4496 182.963 77.63 178.372C78.8318 173.698 81.867 169.821 87.0269 168.526C91.8007 167.328 95.8049 168.206 98.9248 170.843C101.902 173.359 103.796 177.247 105.055 181.541C105.211 182.076 105.36 182.623 105.5 183.179ZM103.088 209.061C103.022 199.808 102.545 190.072 100.441 182.892C99.2916 178.969 97.7465 176.141 95.8212 174.514C94.039 173.007 91.6792 172.314 88.197 173.188C85.1009 173.965 83.148 176.216 82.2858 179.569C81.4022 183.005 81.7368 187.468 83.3405 191.975C86.323 200.357 93.308 207.974 103.088 209.061Z" fill="#EA9EBE"/>
<path fill-rule="evenodd" clip-rule="evenodd" d="M107.912 257.061C117.692 255.974 124.677 248.357 127.66 239.975C129.263 235.468 129.598 231.005 128.714 227.569C127.852 224.216 125.899 221.965 122.803 221.188C119.321 220.314 116.961 221.007 115.179 222.514C113.254 224.141 111.708 226.969 110.559 230.892C108.455 238.072 107.978 247.808 107.912 257.061ZM105.5 231.179C105.64 230.623 105.789 230.076 105.945 229.541C107.204 225.247 109.098 221.359 112.075 218.843C115.195 216.206 119.199 215.328 123.973 216.526C129.133 217.821 132.168 221.698 133.37 226.372C134.55 230.963 134.025 236.426 132.189 241.586C128.531 251.865 119.225 262 105.5 262C91.775 262 82.4691 251.865 78.8114 241.586C76.9751 236.426 76.4496 230.963 77.63 226.372C78.8318 221.698 81.867 217.821 87.0269 216.526C91.8007 215.328 95.8049 216.206 98.9248 218.843C101.902 221.359 103.796 225.247 105.055 229.541C105.211 230.076 105.36 230.623 105.5 231.179ZM103.088 257.061C103.022 247.808 102.545 238.072 100.441 230.892C99.2916 226.969 97.7465 224.141 95.8212 222.514C94.039 221.007 91.6792 220.314 88.197 221.188C85.1009 221.965 83.148 224.216 82.2858 227.569C81.4022 231.005 81.7368 235.468 83.3405 239.975C86.323 248.357 93.308 255.974 103.088 257.061Z" fill="#EA9EBE"/>
<path fill-rule="evenodd" clip-rule="evenodd" d="M169.912 209.061C179.692 207.974 186.677 200.357 189.66 191.975C191.263 187.468 191.598 183.005 190.714 179.569C189.852 176.216 187.899 173.965 184.803 173.188C181.321 172.314 178.961 173.007 177.179 174.514C175.254 176.141 173.708 178.969 172.559 182.892C170.455 190.072 169.978 199.808 169.912 209.061ZM167.5 183.179C167.64 182.623 167.789 182.076 167.945 181.541C169.204 177.247 171.098 173.359 174.075 170.843C177.195 168.206 181.199 167.328 185.973 168.526C191.133 169.821 194.168 173.698 195.37 178.372C196.55 182.963 196.025 188.426 194.189 193.586C190.531 203.865 181.225 214 167.5 214C153.775 214 144.469 203.865 140.811 193.586C138.975 188.426 138.45 182.963 139.63 178.372C140.832 173.698 143.867 169.821 149.027 168.526C153.801 167.328 157.805 168.206 160.925 170.843C163.902 173.359 165.796 177.247 167.055 181.541C167.211 182.076 167.36 182.623 167.5 183.179ZM165.088 209.061C165.022 199.808 164.545 190.072 162.441 182.892C161.292 178.969 159.746 176.141 157.821 174.514C156.039 173.007 153.679 172.314 150.197 173.188C147.101 173.965 145.148 176.216 144.286 179.569C143.402 183.005 143.737 187.468 145.34 191.975C148.323 200.357 155.308 207.974 165.088 209.061Z" fill="#EA9EBE"/>
<path fill-rule="evenodd" clip-rule="evenodd" d="M169.912 257.061C179.692 255.974 186.677 248.357 189.66 239.975C191.263 235.468 191.598 231.005 190.714 227.569C189.852 224.216 187.899 221.965 184.803 221.188C181.321 220.314 178.961 221.007 177.179 222.514C175.254 224.141 173.708 226.969 172.559 230.892C170.455 238.072 169.978 247.808 169.912 257.061ZM167.5 231.179C167.64 230.623 167.789 230.076 167.945 229.541C169.204 225.247 171.098 221.359 174.075 218.843C177.195 216.206 181.199 215.328 185.973 216.526C191.133 217.821 194.168 221.698 195.37 226.372C196.55 230.963 196.025 236.426 194.189 241.586C190.531 251.865 181.225 262 167.5 262C153.775 262 144.469 251.865 140.811 241.586C138.975 236.426 138.45 230.963 139.63 226.372C140.832 221.698 143.867 217.821 149.027 216.526C153.801 215.328 157.805 216.206 160.925 218.843C163.902 221.359 165.796 225.247 167.055 229.541C167.211 230.076 167.36 230.623 167.5 231.179ZM165.088 257.061C165.022 247.808 164.545 238.072 162.441 230.892C161.292 226.969 159.746 224.141 157.821 222.514C156.039 221.007 153.679 220.314 150.197 221.188C147.101 221.965 145.148 224.216 144.286 227.569C143.402 231.005 143.737 235.468 145.34 239.975C148.323 248.357 155.308 255.974 165.088 257.061Z" fill="#EA9EBE"/>
<path fill-rule="evenodd" clip-rule="evenodd" d="M231.912 160.061C241.692 158.974 248.677 151.357 251.66 142.975C253.263 138.468 253.598 134.005 252.714 130.569C251.852 127.216 249.899 124.965 246.803 124.188C243.321 123.314 240.961 124.007 239.179 125.514C237.254 127.141 235.708 129.969 234.559 133.892C232.455 141.072 231.978 150.808 231.912 160.061ZM229.5 134.179C229.64 133.623 229.789 133.076 229.945 132.541C231.204 128.247 233.098 124.359 236.075 121.843C239.195 119.206 243.199 118.328 247.973 119.526C253.133 120.821 256.168 124.698 257.37 129.372C258.55 133.963 258.025 139.426 256.189 144.586C252.531 154.865 243.225 165 229.5 165C215.775 165 206.469 154.865 202.811 144.586C200.975 139.426 200.45 133.963 201.63 129.372C202.832 124.698 205.867 120.821 211.027 119.526C215.801 118.328 219.805 119.206 222.925 121.843C225.902 124.359 227.796 128.247 229.055 132.541C229.211 133.076 229.36 133.623 229.5 134.179ZM227.088 160.061C227.022 150.808 226.545 141.072 224.441 133.892C223.292 129.969 221.746 127.141 219.821 125.514C218.039 124.007 215.679 123.314 212.197 124.188C209.101 124.965 207.148 127.216 206.286 130.569C205.402 134.005 205.737 138.468 207.34 142.975C210.323 151.357 217.308 158.974 227.088 160.061Z" fill="#EA9EBE"/>
<path fill-rule="evenodd" clip-rule="evenodd" d="M231.912 209.061C241.692 207.974 248.677 200.357 251.66 191.975C253.263 187.468 253.598 183.005 252.714 179.569C251.852 176.216 249.899 173.965 246.803 173.188C243.321 172.314 240.961 173.007 239.179 174.514C237.254 176.141 235.708 178.969 234.559 182.892C232.455 190.072 231.978 199.808 231.912 209.061ZM229.5 183.179C229.64 182.623 229.789 182.076 229.945 181.541C231.204 177.247 233.098 173.359 236.075 170.843C239.195 168.206 243.199 167.328 247.973 168.526C253.133 169.821 256.168 173.698 257.37 178.372C258.55 182.963 258.025 188.426 256.189 193.586C252.531 203.865 243.225 214 229.5 214C215.775 214 206.469 203.865 202.811 193.586C200.975 188.426 200.45 182.963 201.63 178.372C202.832 173.698 205.867 169.821 211.027 168.526C215.801 167.328 219.805 168.206 222.925 170.843C225.902 173.359 227.796 177.247 229.055 181.541C229.211 182.076 229.36 182.623 229.5 183.179ZM227.088 209.061C227.022 199.808 226.545 190.072 224.441 182.892C223.292 178.969 221.746 176.141 219.821 174.514C218.039 173.007 215.679 172.314 212.197 173.188C209.101 173.965 207.148 176.216 206.286 179.569C205.402 183.005 205.737 187.468 207.34 191.975C210.323 200.357 217.308 207.974 227.088 209.061Z" fill="#EA9EBE"/>
<path fill-rule="evenodd" clip-rule="evenodd" d="M231.912 257.061C241.692 255.974 248.677 248.357 251.66 239.975C253.263 235.468 253.598 231.005 252.714 227.569C251.852 224.216 249.899 221.965 246.803 221.188C243.321 220.314 240.961 221.007 239.179 222.514C237.254 224.141 235.708 226.969 234.559 230.892C232.455 238.072 231.978 247.808 231.912 257.061ZM229.5 231.179C229.64 230.623 229.789 230.076 229.945 229.541C231.204 225.247 233.098 221.359 236.075 218.843C239.195 216.206 243.199 215.328 247.973 216.526C253.133 217.821 256.168 221.698 257.37 226.372C258.55 230.963 258.025 236.426 256.189 241.586C252.531 251.865 243.225 262 229.5 262C215.775 262 206.469 251.865 202.811 241.586C200.975 236.426 200.45 230.963 201.63 226.372C202.832 221.698 205.867 217.821 211.027 216.526C215.801 215.328 219.805 216.206 222.925 218.843C225.902 221.359 227.796 225.247 229.055 229.541C229.211 230.076 229.36 230.623 229.5 231.179ZM227.088 257.061C227.022 247.808 226.545 238.072 224.441 230.892C223.292 226.969 221.746 224.141 219.821 222.514C218.039 221.007 215.679 220.314 212.197 221.188C209.101 221.965 207.148 224.216 206.286 227.569C205.402 231.005 205.737 235.468 207.34 239.975C210.323 248.357 217.308 255.974 227.088 257.061Z" fill="#EA9EBE"/>
<path fill-rule="evenodd" clip-rule="evenodd" d="M293.912 160.061C303.692 158.974 310.677 151.357 313.66 142.975C315.263 138.468 315.598 134.005 314.714 130.569C313.852 127.216 311.899 124.965 308.803 124.188C305.321 123.314 302.961 124.007 301.179 125.514C299.254 127.141 297.708 129.969 296.559 133.892C294.455 141.072 293.978 150.808 293.912 160.061ZM291.5 134.179C291.64 133.623 291.789 133.076 291.945 132.541C293.204 128.247 295.098 124.359 298.075 121.843C301.195 119.206 305.199 118.328 309.973 119.526C315.133 120.821 318.168 124.698 319.37 129.372C320.55 133.963 320.025 139.426 318.189 144.586C314.531 154.865 305.225 165 291.5 165C277.775 165 268.469 154.865 264.811 144.586C262.975 139.426 262.45 133.963 263.63 129.372C264.832 124.698 267.867 120.821 273.027 119.526C277.801 118.328 281.805 119.206 284.925 121.843C287.902 124.359 289.796 128.247 291.055 132.541C291.211 133.076 291.36 133.623 291.5 134.179ZM289.088 160.061C289.022 150.808 288.545 141.072 286.441 133.892C285.292 129.969 283.746 127.141 281.821 125.514C280.039 124.007 277.679 123.314 274.197 124.188C271.101 124.965 269.148 127.216 268.286 130.569C267.402 134.005 267.737 138.468 269.34 142.975C272.323 151.357 279.308 158.974 289.088 160.061Z" fill="#EA9EBE"/>
<path fill-rule="evenodd" clip-rule="evenodd" d="M293.912 209.061C303.692 207.974 310.677 200.357 313.66 191.975C315.263 187.468 315.598 183.005 314.714 179.569C313.852 176.216 311.899 173.965 308.803 173.188C305.321 172.314 302.961 173.007 301.179 174.514C299.254 176.141 297.708 178.969 296.559 182.892C294.455 190.072 293.978 199.808 293.912 209.061ZM291.5 183.179C291.64 182.623 291.789 182.076 291.945 181.541C293.204 177.247 295.098 173.359 298.075 170.843C301.195 168.206 305.199 167.328 309.973 168.526C315.133 169.821 318.168 173.698 319.37 178.372C320.55 182.963 320.025 188.426 318.189 193.586C314.531 203.865 305.225 214 291.5 214C277.775 214 268.469 203.865 264.811 193.586C262.975 188.426 262.45 182.963 263.63 178.372C264.832 173.698 267.867 169.821 273.027 168.526C277.801 167.328 281.805 168.206 284.925 170.843C287.902 173.359 289.796 177.247 291.055 181.541C291.211 182.076 291.36 182.623 291.5 183.179ZM289.088 209.061C289.022 199.808 288.545 190.072 286.441 182.892C285.292 178.969 283.746 176.141 281.821 174.514C280.039 173.007 277.679 172.314 274.197 173.188C271.101 173.965 269.148 176.216 268.286 179.569C267.402 183.005 267.737 187.468 269.34 191.975C272.323 200.357 279.308 207.974 289.088 209.061Z" fill="#EA9EBE"/>
<path fill-rule="evenodd" clip-rule="evenodd" d="M293.912 257.061C303.692 255.974 310.677 248.357 313.66 239.975C315.263 235.468 315.598 231.005 314.714 227.569C313.852 224.216 311.899 221.965 308.803 221.188C305.321 220.314 302.961 221.007 301.179 222.514C299.254 224.141 297.708 226.969 296.559 230.892C294.455 238.072 293.978 247.808 293.912 257.061ZM291.5 231.179C291.64 230.623 291.789 230.076 291.945 229.541C293.204 225.247 295.098 221.359 298.075 218.843C301.195 216.206 305.199 215.328 309.973 216.526C315.133 217.821 318.168 221.698 319.37 226.372C320.55 230.963 320.025 236.426 318.189 241.586C314.531 251.865 305.225 262 291.5 262C277.775 262 268.469 251.865 264.811 241.586C262.975 236.426 262.45 230.963 263.63 226.372C264.832 221.698 267.867 217.821 273.027 216.526C277.801 215.328 281.805 216.206 284.925 218.843C287.902 221.359 289.796 225.247 291.055 229.541C291.211 230.076 291.36 230.623 291.5 231.179ZM289.088 257.061C289.022 247.808 288.545 238.072 286.441 230.892C285.292 226.969 283.746 224.141 281.821 222.514C280.039 221.007 277.679 220.314 274.197 221.188C271.101 221.965 269.148 224.216 268.286 227.569C267.402 231.005 267.737 235.468 269.34 239.975C272.323 248.357 279.308 255.974 289.088 257.061Z" fill="#EA9EBE"/>
<path fill-rule="evenodd" clip-rule="evenodd" d="M293.912 306.061C303.692 304.974 310.677 297.357 313.66 288.975C315.263 284.468 315.598 280.005 314.714 276.569C313.852 273.216 311.899 270.965 308.803 270.188C305.321 269.314 302.961 270.007 301.179 271.514C299.254 273.141 297.708 275.969 296.559 279.892C294.455 287.072 293.978 296.808 293.912 306.061ZM291.5 280.179C291.64 279.623 291.789 279.076 291.945 278.541C293.204 274.247 295.098 270.359 298.075 267.843C301.195 265.206 305.199 264.328 309.973 265.526C315.133 266.821 318.168 270.698 319.37 275.372C320.55 279.963 320.025 285.426 318.189 290.586C314.531 300.865 305.225 311 291.5 311C277.775 311 268.469 300.865 264.811 290.586C262.975 285.426 262.45 279.963 263.63 275.372C264.832 270.698 267.867 266.821 273.027 265.526C277.801 264.328 281.805 265.206 284.925 267.843C287.902 270.359 289.796 274.247 291.055 278.541C291.211 279.076 291.36 279.623 291.5 280.179ZM289.088 306.061C289.022 296.808 288.545 287.072 286.441 279.892C285.292 275.969 283.746 273.141 281.821 271.514C280.039 270.007 277.679 269.314 274.197 270.188C271.101 270.965 269.148 273.216 268.286 276.569C267.402 280.005 267.737 284.468 269.34 288.975C272.323 297.357 279.308 304.974 289.088 306.061Z" fill="#EA9EBE"/>
<path fill-rule="evenodd" clip-rule="evenodd" d="M293.912 354.061C303.692 352.974 310.677 345.357 313.66 336.975C315.263 332.468 315.598 328.005 314.714 324.569C313.852 321.216 311.899 318.965 308.803 318.188C305.321 317.314 302.961 318.007 301.179 319.514C299.254 321.141 297.708 323.969 296.559 327.892C294.455 335.072 293.978 344.808 293.912 354.061ZM291.5 328.179C291.64 327.623 291.789 327.076 291.945 326.541C293.204 322.247 295.098 318.359 298.075 315.843C301.195 313.206 305.199 312.328 309.973 313.526C315.133 314.821 318.168 318.698 319.37 323.372C320.55 327.963 320.025 333.426 318.189 338.586C314.531 348.865 305.225 359 291.5 359C277.775 359 268.469 348.865 264.811 338.586C262.975 333.426 262.45 327.963 263.63 323.372C264.832 318.698 267.867 314.821 273.027 313.526C277.801 312.328 281.805 313.206 284.925 315.843C287.902 318.359 289.796 322.247 291.055 326.541C291.211 327.076 291.36 327.623 291.5 328.179ZM289.088 354.061C289.022 344.808 288.545 335.072 286.441 327.892C285.292 323.969 283.746 321.141 281.821 319.514C280.039 318.007 277.679 317.314 274.197 318.188C271.101 318.965 269.148 321.216 268.286 324.569C267.402 328.005 267.737 332.468 269.34 336.975C272.323 345.357 279.308 352.974 289.088 354.061Z" fill="#EA9EBE"/>
<path fill-rule="evenodd" clip-rule="evenodd" d="M231.912 306.061C241.692 304.974 248.677 297.357 251.66 288.975C253.263 284.468 253.598 280.005 252.714 276.569C251.852 273.216 249.899 270.965 246.803 270.188C243.321 269.314 240.961 270.007 239.179 271.514C237.254 273.141 235.708 275.969 234.559 279.892C232.455 287.072 231.978 296.808 231.912 306.061ZM229.5 280.179C229.64 279.623 229.789 279.076 229.945 278.541C231.204 274.247 233.098 270.359 236.075 267.843C239.195 265.206 243.199 264.328 247.973 265.526C253.133 266.821 256.168 270.698 257.37 275.372C258.55 279.963 258.025 285.426 256.189 290.586C252.531 300.865 243.225 311 229.5 311C215.775 311 206.469 300.865 202.811 290.586C200.975 285.426 200.45 279.963 201.63 275.372C202.832 270.698 205.867 266.821 211.027 265.526C215.801 264.328 219.805 265.206 222.925 267.843C225.902 270.359 227.796 274.247 229.055 278.541C229.211 279.076 229.36 279.623 229.5 280.179ZM227.088 306.061C227.022 296.808 226.545 287.072 224.441 279.892C223.292 275.969 221.746 273.141 219.821 271.514C218.039 270.007 215.679 269.314 212.197 270.188C209.101 270.965 207.148 273.216 206.286 276.569C205.402 280.005 205.737 284.468 207.34 288.975C210.323 297.357 217.308 304.974 227.088 306.061Z" fill="#EA9EBE"/>
<path fill-rule="evenodd" clip-rule="evenodd" d="M231.912 354.061C241.692 352.974 248.677 345.357 251.66 336.975C253.263 332.468 253.598 328.005 252.714 324.569C251.852 321.216 249.899 318.965 246.803 318.188C243.321 317.314 240.961 318.007 239.179 319.514C237.254 321.141 235.708 323.969 234.559 327.892C232.455 335.072 231.978 344.808 231.912 354.061ZM229.5 328.179C229.64 327.623 229.789 327.076 229.945 326.541C231.204 322.247 233.098 318.359 236.075 315.843C239.195 313.206 243.199 312.328 247.973 313.526C253.133 314.821 256.168 318.698 257.37 323.372C258.55 327.963 258.025 333.426 256.189 338.586C252.531 348.865 243.225 359 229.5 359C215.775 359 206.469 348.865 202.811 338.586C200.975 333.426 200.45 327.963 201.63 323.372C202.832 318.698 205.867 314.821 211.027 313.526C215.801 312.328 219.805 313.206 222.925 315.843C225.902 318.359 227.796 322.247 229.055 326.541C229.211 327.076 229.36 327.623 229.5 328.179ZM227.088 354.061C227.022 344.808 226.545 335.072 224.441 327.892C223.292 323.969 221.746 321.141 219.821 319.514C218.039 318.007 215.679 317.314 212.197 318.188C209.101 318.965 207.148 321.216 206.286 324.569C205.402 328.005 205.737 332.468 207.34 336.975C210.323 345.357 217.308 352.974 227.088 354.061Z" fill="#EA9EBE"/>
<path fill-rule="evenodd" clip-rule="evenodd" d="M169.912 306.061C179.692 304.974 186.677 297.357 189.66 288.975C191.263 284.468 191.598 280.005 190.714 276.569C189.852 273.216 187.899 270.965 184.803 270.188C181.321 269.314 178.961 270.007 177.179 271.514C175.254 273.141 173.708 275.969 172.559 279.892C170.455 287.072 169.978 296.808 169.912 306.061ZM167.5 280.179C167.64 279.623 167.789 279.076 167.945 278.541C169.204 274.247 171.098 270.359 174.075 267.843C177.195 265.206 181.199 264.328 185.973 265.526C191.133 266.821 194.168 270.698 195.37 275.372C196.55 279.963 196.025 285.426 194.189 290.586C190.531 300.865 181.225 311 167.5 311C153.775 311 144.469 300.865 140.811 290.586C138.975 285.426 138.45 279.963 139.63 275.372C140.832 270.698 143.867 266.821 149.027 265.526C153.801 264.328 157.805 265.206 160.925 267.843C163.902 270.359 165.796 274.247 167.055 278.541C167.211 279.076 167.36 279.623 167.5 280.179ZM165.088 306.061C165.022 296.808 164.545 287.072 162.441 279.892C161.292 275.969 159.746 273.141 157.821 271.514C156.039 270.007 153.679 269.314 150.197 270.188C147.101 270.965 145.148 273.216 144.286 276.569C143.402 280.005 143.737 284.468 145.34 288.975C148.323 297.357 155.308 304.974 165.088 306.061Z" fill="#EA9EBE"/>
<path fill-rule="evenodd" clip-rule="evenodd" d="M169.912 354.061C179.692 352.974 186.677 345.357 189.66 336.975C191.263 332.468 191.598 328.005 190.714 324.569C189.852 321.216 187.899 318.965 184.803 318.188C181.321 317.314 178.961 318.007 177.179 319.514C175.254 321.141 173.708 323.969 172.559 327.892C170.455 335.072 169.978 344.808 169.912 354.061ZM167.5 328.179C167.64 327.623 167.789 327.076 167.945 326.541C169.204 322.247 171.098 318.359 174.075 315.843C177.195 313.206 181.199 312.328 185.973 313.526C191.133 314.821 194.168 318.698 195.37 323.372C196.55 327.963 196.025 333.426 194.189 338.586C190.531 348.865 181.225 359 167.5 359C153.775 359 144.469 348.865 140.811 338.586C138.975 333.426 138.45 327.963 139.63 323.372C140.832 318.698 143.867 314.821 149.027 313.526C153.801 312.328 157.805 313.206 160.925 315.843C163.902 318.359 165.796 322.247 167.055 326.541C167.211 327.076 167.36 327.623 167.5 328.179ZM165.088 354.061C165.022 344.808 164.545 335.072 162.441 327.892C161.292 323.969 159.746 321.141 157.821 319.514C156.039 318.007 153.679 317.314 150.197 318.188C147.101 318.965 145.148 321.216 144.286 324.569C143.402 328.005 143.737 332.468 145.34 336.975C148.323 345.357 155.308 352.974 165.088 354.061Z" fill="#EA9EBE"/>
<path fill-rule="evenodd" clip-rule="evenodd" d="M107.912 306.061C117.692 304.974 124.677 297.357 127.66 288.975C129.263 284.468 129.598 280.005 128.714 276.569C127.852 273.216 125.899 270.965 122.803 270.188C119.321 269.314 116.961 270.007 115.179 271.514C113.254 273.141 111.708 275.969 110.559 279.892C108.455 287.072 107.978 296.808 107.912 306.061ZM105.5 280.179C105.64 279.623 105.789 279.076 105.945 278.541C107.204 274.247 109.098 270.359 112.075 267.843C115.195 265.206 119.199 264.328 123.973 265.526C129.133 266.821 132.168 270.698 133.37 275.372C134.55 279.963 134.025 285.426 132.189 290.586C128.531 300.865 119.225 311 105.5 311C91.775 311 82.4691 300.865 78.8114 290.586C76.9751 285.426 76.4496 279.963 77.63 275.372C78.8318 270.698 81.867 266.821 87.0269 265.526C91.8007 264.328 95.8049 265.206 98.9248 267.843C101.902 270.359 103.796 274.247 105.055 278.541C105.211 279.076 105.36 279.623 105.5 280.179ZM103.088 306.061C103.022 296.808 102.545 287.072 100.441 279.892C99.2916 275.969 97.7465 273.141 95.8212 271.514C94.039 270.007 91.6792 269.314 88.197 270.188C85.1009 270.965 83.148 273.216 82.2858 276.569C81.4022 280.005 81.7368 284.468 83.3405 288.975C86.323 297.357 93.308 304.974 103.088 306.061Z" fill="#EA9EBE"/>
<path fill-rule="evenodd" clip-rule="evenodd" d="M107.912 354.061C117.692 352.974 124.677 345.357 127.66 336.975C129.263 332.468 129.598 328.005 128.714 324.569C127.852 321.216 125.899 318.965 122.803 318.188C119.321 317.314 116.961 318.007 115.179 319.514C113.254 321.141 111.708 323.969 110.559 327.892C108.455 335.072 107.978 344.808 107.912 354.061ZM105.5 328.179C105.64 327.623 105.789 327.076 105.945 326.541C107.204 322.247 109.098 318.359 112.075 315.843C115.195 313.206 119.199 312.328 123.973 313.526C129.133 314.821 132.168 318.698 133.37 323.372C134.55 327.963 134.025 333.426 132.189 338.586C128.531 348.865 119.225 359 105.5 359C91.775 359 82.4691 348.865 78.8114 338.586C76.9751 333.426 76.4496 327.963 77.63 323.372C78.8318 318.698 81.867 314.821 87.0269 313.526C91.8007 312.328 95.8049 313.206 98.9248 315.843C101.902 318.359 103.796 322.247 105.055 326.541C105.211 327.076 105.36 327.623 105.5 328.179ZM103.088 354.061C103.022 344.808 102.545 335.072 100.441 327.892C99.2916 323.969 97.7465 321.141 95.8212 319.514C94.039 318.007 91.6792 317.314 88.197 318.188C85.1009 318.965 83.148 321.216 82.2858 324.569C81.4022 328.005 81.7368 332.468 83.3405 336.975C86.323 345.357 93.308 352.974 103.088 354.061Z" fill="#EA9EBE"/>
<path fill-rule="evenodd" clip-rule="evenodd" d="M189.66 142.975C186.677 151.357 179.692 158.974 169.912 160.061C169.978 150.808 170.455 141.072 172.559 133.892C173.539 130.548 174.806 128.001 176.35 126.313C174.725 125.816 173.166 125.173 171.734 124.374C170.046 126.664 168.836 129.501 167.945 132.541C167.789 133.076 167.64 133.623 167.5 134.179C167.36 133.623 167.211 133.076 167.055 132.541C165.796 128.247 163.902 124.359 160.925 121.843C157.805 119.206 153.801 118.328 149.027 119.526C143.867 120.821 140.832 124.698 139.63 129.372C138.45 133.963 138.975 139.426 140.811 144.586C144.469 154.865 153.775 165 167.5 165C181.225 165 190.531 154.865 194.189 144.586C196.025 139.426 196.55 133.963 195.37 129.372C195.103 128.332 194.744 127.332 194.292 126.39C192.745 126.878 191.087 127.221 189.377 127.425C189.962 128.322 190.407 129.376 190.714 130.569C191.598 134.005 191.263 138.468 189.66 142.975ZM165.088 160.061C165.022 150.808 164.545 141.072 162.441 133.892C161.292 129.969 159.746 127.141 157.821 125.514C156.039 124.007 153.679 123.314 150.197 124.188C147.101 124.965 145.148 127.216 144.286 130.569C143.402 134.005 143.737 138.468 145.34 142.975C148.323 151.357 155.308 158.974 165.088 160.061Z" fill="#EA9EBE"/>
<path fill-rule="evenodd" clip-rule="evenodd" d="M334.332 38.7044L243.048 73.8069C236.229 78.2171 232.655 87.5322 231.752 97.2894L263.028 85.4647L268.07 83.5586L282.464 78.1165L287.224 76.3169L340.483 56.1816L340.495 56.1767C343.472 55.0055 345.293 53.0858 346.206 51.0009C347.123 48.9047 347.219 46.4227 346.378 43.9233C345.546 41.4491 344.075 39.7677 342.146 38.8675C340.196 37.9575 337.568 37.7533 334.332 38.7044ZM227.74 112.2C227.083 108.615 226.788 104.63 226.907 100.565C227.249 88.8724 231.089 75.4674 240.917 69.2861C241.514 68.9103 242.132 68.5629 242.77 68.2455C236.918 63.1993 229.721 62.1204 223.441 63.9517C216.112 66.0894 210.326 72.0769 209.242 80.026C209.051 81.4237 209.008 83.0569 209.132 84.8542C209.479 89.8928 211.116 95.8833 214.007 101.006C217.223 106.703 221.824 111.078 227.74 112.2ZM247.985 66.5227L332.876 33.8789C332.928 33.8588 332.981 33.8409 333.034 33.825C337.052 32.6245 340.815 32.7235 343.964 34.1925C347.148 35.6786 349.488 38.4705 350.731 42.1667C351.965 45.8377 351.895 49.7548 350.389 53.1976C348.878 56.6489 346.022 59.4059 342.047 60.9654L342.022 60.9752L255.731 93.5991C252.61 104.881 244.416 117.413 230.843 117.562L230.812 117.563C230.798 117.563 230.785 117.563 230.771 117.563H230.768L230.684 117.563L230.599 117.563C230.593 117.563 230.587 117.563 230.582 117.563C230.572 117.563 230.562 117.563 230.551 117.563L230.52 117.562C221.639 117.46 215.05 111.849 210.777 104.893C208.715 104.904 206.731 104.887 204.847 104.871L204.844 104.871C201.128 104.839 197.8 104.81 195.023 105.007C192.789 105.165 191.233 105.457 190.294 105.869C189.963 106.015 189.794 106.139 189.719 106.206C189.722 106.351 189.735 106.447 189.746 106.506C189.765 106.515 189.79 106.525 189.821 106.537C190.046 106.624 190.428 106.705 191.059 106.749C191.682 106.793 192.398 106.794 193.275 106.794C197.189 106.794 200.085 108.136 201.914 110.28C203.704 112.376 204.319 115.089 203.866 117.361C202.998 121.718 199.477 124.415 195.701 125.894C195.243 126.073 194.773 126.239 194.292 126.39C193.487 124.714 192.384 123.225 190.965 122.035C192.097 121.801 193.164 121.491 194.139 121.109C197.356 119.849 198.977 118.068 199.334 116.278C199.446 115.717 199.326 114.688 198.526 113.75C197.766 112.86 196.217 111.876 193.275 111.876L193.031 111.876C191.527 111.878 189.706 111.88 188.282 111.331C187.433 111.004 186.556 110.43 185.923 109.421C185.299 108.427 185.079 107.276 185.079 106.127C185.079 104.899 185.47 103.793 186.184 102.902C186.854 102.067 187.721 101.524 188.569 101.152C190.232 100.423 192.413 100.099 194.724 99.9356C197.645 99.7288 201.287 99.7586 205.155 99.7903L205.163 99.7903L205.165 99.7904L205.168 99.7904L205.171 99.7904L205.174 99.7904L205.177 99.7904L205.181 99.7905L205.184 99.7905L205.188 99.7905C205.309 99.7915 205.429 99.7925 205.55 99.7935C206.405 99.8004 207.27 99.8071 208.14 99.8109C206.523 96.0945 205.43 92.1809 204.868 88.4884L184.739 96.2291C184.733 96.2314 184.727 96.2337 184.721 96.2359C184.714 96.2383 184.708 96.2407 184.701 96.243C179.823 98.0183 175.714 100.658 172.868 103.522C169.959 106.448 168.66 109.294 168.66 111.473C168.66 111.528 168.658 111.583 168.655 111.638C168.477 114.644 169.804 117.037 172.378 118.915C173.329 119.608 174.429 120.211 175.638 120.715C175.095 121.045 174.574 121.422 174.075 121.843C173.206 122.578 172.429 123.429 171.734 124.374C171.061 123.999 170.417 123.589 169.807 123.144C166.262 120.558 163.74 116.629 164.021 111.39C164.053 107.184 166.417 103.112 169.73 99.7789C173.124 96.3648 177.823 93.3944 183.22 91.4274L204.426 83.2732C204.409 81.8775 204.482 80.5342 204.654 79.2754C206.067 68.9143 213.525 61.5852 222.248 59.0413C230.679 56.5824 240.564 58.4862 247.985 66.5227ZM184.803 124.188C186.797 124.688 188.317 125.8 189.377 127.425C187.124 127.693 184.782 127.717 182.489 127.504C180.419 127.311 178.335 126.921 176.35 126.313C176.618 126.021 176.894 125.754 177.179 125.514C178.961 124.007 181.321 123.314 184.803 124.188ZM232.939 112.319C241.152 111.158 247.007 103.959 250.123 95.7195L233.474 102.014C233.181 105.149 232.998 108.58 232.939 112.319Z" fill="#EA9EBE"/>
<path d="M177.179 125.514C178.961 124.007 181.321 123.314 184.803 124.188C186.797 124.688 188.317 125.8 189.377 127.425C191.087 127.221 192.745 126.878 194.292 126.39C193.487 124.714 192.384 123.225 190.965 122.035C188.472 122.551 185.671 122.699 182.881 122.44C180.277 122.198 177.786 121.611 175.638 120.715C175.095 121.045 174.574 121.422 174.075 121.843C173.206 122.578 172.429 123.429 171.734 124.374C173.166 125.173 174.725 125.816 176.35 126.313C176.618 126.021 176.894 125.754 177.179 125.514Z" fill="#EA9EBE"/>
<path fill-rule="evenodd" clip-rule="evenodd" d="M205.55 99.7935C205.429 99.7925 205.309 99.7915 205.188 99.7905L205.184 99.7905C205.306 99.7915 205.428 99.7925 205.55 99.7935Z" fill="#EFECE2"/>
<path fill-rule="evenodd" clip-rule="evenodd" d="M293.912 112.061C303.692 110.974 310.677 103.357 313.66 94.9752C315.263 90.4684 315.598 86.0053 314.714 82.5688C313.852 79.2156 311.899 76.9646 308.803 76.1878C305.321 75.3141 302.961 76.0073 301.179 77.5136C299.254 79.141 297.708 81.9687 296.559 85.8923C294.455 93.0721 293.978 102.808 293.912 112.061ZM291.5 86.1794C291.64 85.6226 291.789 85.0761 291.945 84.541C293.204 80.2473 295.098 76.3595 298.075 73.8434C301.195 71.2064 305.199 70.3285 309.973 71.5263C315.133 72.8209 318.168 76.6982 319.37 81.3722C320.55 85.9628 320.025 91.4258 318.189 96.5861C314.531 106.865 305.225 117 291.5 117C277.775 117 268.469 106.865 264.811 96.5861C263.496 92.8904 262.853 89.0393 263.028 85.4647L268.07 83.5586C267.476 86.8401 267.887 90.8896 269.34 94.9752C272.323 103.357 279.308 110.974 289.088 112.061C289.022 102.808 288.545 93.0721 286.441 85.8923C285.423 82.4158 284.093 79.7996 282.464 78.1165L287.224 76.3169C288.934 78.6171 290.156 81.4756 291.055 84.541C291.211 85.0761 291.36 85.6226 291.5 86.1794Z" fill="#EA9EBE"/>
</svg>
