<svg width="80" height="87" viewBox="0 0 80 87" fill="none" xmlns="http://www.w3.org/2000/svg">
<path d="M38.5 65.5V44.1465L34.0215 39.9248C33.4187 39.3565 33.3907 38.4075 33.959 37.8047C34.5273 37.2019 35.4763 37.1739 36.0791 37.7422L38.5 40.0244V23H23.5C22.6716 23 22 22.3284 22 21.5C22 20.6716 22.6716 20 23.5 20H56.5C57.3284 20 58 20.6716 58 21.5C58 22.3284 57.3284 23 56.5 23H41.5V42.8525L45.9785 47.0752C46.5813 47.6435 46.6093 48.5925 46.041 49.1953C45.4727 49.7981 44.5237 49.8261 43.9209 49.2578L41.5 46.9746V65.5C41.5 66.3284 40.8284 67 40 67C39.1716 67 38.5 66.3284 38.5 65.5Z" fill="#322D41"/>
</svg>
