<svg width="80" height="87" viewBox="0 0 80 87" fill="none" xmlns="http://www.w3.org/2000/svg">
<path d="M38.5 65.5V48.8818L34.1074 45.333C33.4631 44.8123 33.3631 43.868 33.8838 43.2236C34.4045 42.5796 35.3489 42.4794 35.9932 43L38.5 45.0254V39.5488L34.1074 36C33.4631 35.4793 33.3631 34.535 33.8838 33.8906C34.4045 33.2465 35.3489 33.1464 35.9932 33.667L38.5 35.6924V23H23.5C22.6716 23 22 22.3284 22 21.5C22 20.6716 22.6716 20 23.5 20H56.5C57.3284 20 58 20.6716 58 21.5C58 22.3284 57.3284 23 56.5 23H41.5V38.1172L45.8926 41.667C46.5369 42.1877 46.6369 43.132 46.1162 43.7764C45.5955 44.4204 44.6511 44.5206 44.0068 44L41.5 41.9736V47.4502L45.8926 51C46.5369 51.5207 46.6369 52.465 46.1162 53.1094C45.5955 53.7536 44.6511 53.8536 44.0068 53.333L41.5 51.3066V65.5C41.5 66.3284 40.8284 67 40 67C39.1716 67 38.5 66.3284 38.5 65.5Z" fill="#322D41"/>
</svg>
