<svg width="402" height="383" viewBox="0 0 402 383" fill="none" xmlns="http://www.w3.org/2000/svg">
<g clip-path="url(#clip0_462_1143)">
<path fill-rule="evenodd" clip-rule="evenodd" d="M260.544 303.835L284.216 322.563L287.583 318.308L263.867 299.546L263.846 299.53C260.412 296.921 255.808 295.932 251.355 297.28C243.979 299.512 239.809 307.301 242.042 314.676L248.553 336.193C250.786 343.568 258.574 347.738 265.95 345.506C273.326 343.273 277.495 335.485 275.263 328.109L272.688 319.599C271.878 316.923 269.052 315.411 266.377 316.22L257.867 318.796C254.793 319.726 252.276 321.621 250.548 324.049L247.235 313.105C245.871 308.597 248.419 303.837 252.927 302.473C255.636 301.653 258.437 302.244 260.544 303.835ZM253.747 334.621C252.383 330.113 254.931 325.354 259.438 323.989L267.6 321.519L270.07 329.681C271.434 334.188 268.886 338.948 264.378 340.312C259.871 341.676 255.111 339.128 253.747 334.621Z" fill="#EA9EBE"/>
<path fill-rule="evenodd" clip-rule="evenodd" d="M209.764 20.8354L186.092 39.5634L182.725 35.3079L206.441 16.5459L206.462 16.5298C209.895 13.9207 214.5 12.9319 218.953 14.2797C226.329 16.5119 230.498 24.3007 228.266 31.6764L221.754 53.1926C219.522 60.5682 211.733 64.7379 204.358 62.5056C196.982 60.2734 192.812 52.4847 195.045 45.109L197.62 36.5989C198.43 33.9232 201.256 32.4106 203.931 33.2204L212.441 35.7959C215.515 36.7261 218.032 38.6211 219.76 41.049L223.073 30.1046C224.437 25.5972 221.889 20.8374 217.381 19.4733C214.671 18.6531 211.871 19.2444 209.764 20.8354ZM216.561 51.6207C217.925 47.1134 215.377 42.3536 210.87 40.9895L202.708 38.5195L200.238 46.6808C198.874 51.1882 201.422 55.9479 205.93 57.3121C210.437 58.6762 215.197 56.1281 216.561 51.6207Z" fill="#EA9EBE"/>
<path fill-rule="evenodd" clip-rule="evenodd" d="M125.473 302.961C120.936 301.702 116.236 304.359 114.976 308.896L112.694 317.112L120.91 319.394C124.005 320.253 126.564 322.089 128.349 324.477L131.408 313.459C132.668 308.921 130.011 304.221 125.473 302.961ZM130.622 336.571L136.636 314.911C138.698 307.485 134.35 299.795 126.925 297.733C119.5 295.671 111.809 300.019 109.747 307.444L103.733 329.105C101.671 336.53 106.019 344.221 113.444 346.282C120.869 348.344 128.56 343.996 130.622 336.571ZM111.243 322.341L108.961 330.557C107.701 335.094 110.359 339.794 114.896 341.054C119.434 342.314 124.134 339.657 125.393 335.119C126.653 330.582 123.996 325.882 119.459 324.622L111.243 322.341Z" fill="#EA9EBE"/>
<path fill-rule="evenodd" clip-rule="evenodd" d="M323.708 129.417C334.689 128.188 342.532 119.577 345.881 110.102C347.682 105.008 348.057 99.9626 347.065 96.0777C346.097 92.2872 343.904 89.7426 340.428 88.8644C336.518 87.8768 333.868 88.6604 331.867 90.3632C329.706 92.2028 327.971 95.3994 326.68 99.8348C324.318 107.951 323.782 118.957 323.708 129.417ZM321 100.159C321.157 99.5299 321.324 98.9121 321.5 98.3073C322.913 93.4535 325.04 89.0585 328.383 86.2143C331.886 83.2333 336.382 82.2409 341.742 83.5949C347.535 85.0585 350.943 89.4415 352.293 94.7251C353.618 99.9145 353.028 106.09 350.966 111.923C346.859 123.543 336.411 135 321 135C305.589 135 295.141 123.543 291.034 111.923C288.972 106.09 288.382 99.9145 289.707 94.7251C291.057 89.4415 294.465 85.0585 300.258 83.5949C305.618 82.2409 310.114 83.2333 313.617 86.2143C316.96 89.0585 319.087 93.4535 320.5 98.3073C320.676 98.9121 320.843 99.5299 321 100.159ZM318.292 129.417C318.218 118.957 317.682 107.951 315.32 99.8348C314.029 95.3994 312.294 92.2028 310.133 90.3632C308.132 88.6604 305.482 87.8768 301.572 88.8644C298.096 89.7426 295.903 92.2872 294.935 96.0777C293.943 99.9626 294.318 105.008 296.119 110.102C299.468 119.577 307.311 128.188 318.292 129.417Z" fill="#EA9EBE"/>
<path fill-rule="evenodd" clip-rule="evenodd" d="M323.708 184.417C334.689 183.188 342.532 174.577 345.881 165.102C347.682 160.008 348.057 154.963 347.065 151.078C346.097 147.287 343.904 144.743 340.428 143.864C336.518 142.877 333.868 143.66 331.867 145.363C329.706 147.203 327.971 150.399 326.68 154.835C324.318 162.951 323.782 173.957 323.708 184.417ZM321 155.159C321.157 154.53 321.324 153.912 321.5 153.307C322.913 148.453 325.04 144.059 328.383 141.214C331.886 138.233 336.382 137.241 341.742 138.595C347.535 140.058 350.943 144.441 352.293 149.725C353.618 154.914 353.028 161.09 350.966 166.923C346.859 178.543 336.411 190 321 190C305.589 190 295.141 178.543 291.034 166.923C288.972 161.09 288.382 154.914 289.707 149.725C291.057 144.441 294.465 140.058 300.258 138.595C305.618 137.241 310.114 138.233 313.617 141.214C316.96 144.059 319.087 148.453 320.5 153.307C320.676 153.912 320.843 154.53 321 155.159ZM318.292 184.417C318.218 173.957 317.682 162.951 315.32 154.835C314.029 150.399 312.294 147.203 310.133 145.363C308.132 143.66 305.482 142.877 301.572 143.864C298.096 144.743 295.903 147.287 294.935 151.078C293.943 154.963 294.318 160.008 296.119 165.102C299.468 174.577 307.311 183.188 318.292 184.417Z" fill="#EA9EBE"/>
<path fill-rule="evenodd" clip-rule="evenodd" d="M164.647 251.822C164.592 247.788 164.136 243.269 163.067 239.616C162.262 236.862 161.225 235.015 160.133 234.088C159.634 233.664 159.146 233.45 158.631 233.385C158.103 233.318 157.359 233.385 156.332 233.822C155.301 234.26 154.768 234.736 154.484 235.127C154.213 235.5 154.057 235.951 154.044 236.562C154.015 237.927 154.713 239.902 156.282 242.35C158.376 245.617 161.567 249.036 164.647 251.822ZM164.988 259.177C160.747 255.924 155.111 250.58 151.714 245.278C149.968 242.555 148.556 239.452 148.619 236.449C148.652 234.876 149.092 233.319 150.092 231.94C151.081 230.578 152.494 229.557 154.21 228.828C155.929 228.097 157.645 227.79 159.314 228.002C160.997 228.215 162.445 228.932 163.645 229.951C165.952 231.909 167.369 234.994 168.275 238.092C170.03 244.092 170.309 251.71 169.932 256.941L201.314 325.77C201.935 327.133 201.334 328.742 199.971 329.364C198.607 329.986 196.998 329.384 196.376 328.021L164.988 259.177Z" fill="#EA9EBE"/>
<path fill-rule="evenodd" clip-rule="evenodd" d="M20.4897 27.503L24.4706 35.9102C34.2092 56.477 41.6235 74.4271 43.0401 95.8189C43.5742 103.884 43.5367 112.642 41.5738 119.946C39.667 127.04 36.3158 131.61 30.8278 133.765C27.2798 135.159 24.0496 134.901 19.606 132.699C19.2871 132.541 18.9631 132.38 18.6304 132.214L18.6255 132.212C18.4755 132.137 18.3237 132.062 18.1701 131.985C11.1368 128.482 0.413776 123.141 -11.3017 124.94C-22.7978 126.706 -34.3194 132.327 -41.4644 143.51C-49.4884 156.069 -51.0363 171.702 -50.9995 183.8C-50.9565 197.97 -47.2335 211.61 -41.5907 224.476L-37.8548 232.995L-20.8171 225.523L-24.553 217.004C-29.4864 205.755 -32.3623 194.676 -32.3955 183.743C-32.4293 172.625 -30.8561 161.46 -25.787 153.526C-22.2244 147.95 -16.1251 144.503 -8.47799 143.329C-2.97812 142.484 2.75998 145.114 11.2233 149.308L11.3445 149.368L13.7542 144.506L13.633 144.446C5.61818 140.474 -1.77473 136.81 -9.30157 137.966C-18.0749 139.313 -25.7536 143.396 -30.3596 150.605C-36.2908 159.888 -37.8563 172.357 -37.8217 183.76C-37.7856 195.631 -34.6656 207.452 -29.5296 219.167C-29.5272 219.173 -29.5248 219.178 -29.5224 219.184L-27.9657 222.733L-35.0647 225.846L-36.6214 222.297C-36.6239 222.291 -36.6264 222.286 -36.6289 222.28C-36.8341 221.812 -37.0365 221.343 -37.236 220.874C-42.3179 208.916 -45.5347 196.504 -45.5733 183.783C-45.6092 171.972 -44.0543 157.642 -36.8918 146.431C-30.7931 136.886 -20.8548 131.897 -10.4781 130.304C-0.477771 128.768 8.91014 133.439 16.2084 137.07C16.5422 137.236 16.8716 137.4 17.1964 137.561C22.6404 140.259 27.4928 140.905 32.8114 138.816C40.4379 135.821 44.6352 129.461 46.8141 121.354C49.0155 113.163 48.9986 103.677 48.4545 95.4604C46.9656 72.9786 39.1538 54.2401 29.3748 33.588L27.7161 30.0851L34.722 26.7676L36.3807 30.2706C36.6022 30.7384 36.8229 31.2056 37.0429 31.6725C46.5918 51.9421 54.6331 71.451 56.1892 94.9481C56.7477 103.382 56.8421 113.908 54.3001 123.366C51.7356 132.908 46.3348 141.833 35.6452 146.031C27.7911 149.116 20.62 147.909 13.7542 144.506L11.3445 149.368C19.2021 153.263 27.9969 154.865 37.6288 151.082C50.4669 146.04 56.7076 135.314 59.5403 124.774C62.3206 114.43 62.1722 103.176 61.6036 94.5896C59.9395 69.462 51.1632 48.8101 41.2849 27.9484L37.304 19.5413L20.4897 27.503Z" fill="#EA9EBE"/>
<path fill-rule="evenodd" clip-rule="evenodd" d="M34.214 331.211C32.6709 332.025 31.4983 331.916 30.6502 331.529C30.236 331.34 29.619 330.826 29.582 329.015C29.5439 327.148 30.189 324.367 31.9435 320.76L78.063 225.963L110.81 203.411L40.1144 324.656C37.91 328.437 35.8365 330.354 34.214 331.211ZM121.306 196.182L44.802 327.389C42.2992 331.682 39.5782 334.515 36.7468 336.009C33.8358 337.546 30.8951 337.605 28.3979 336.466C25.4668 335.129 24.2205 332.24 24.157 329.125C24.0946 326.067 25.112 322.399 27.0641 318.386L68.9881 232.213L-10.03 286.633C-12.6283 288.422 -15.5559 289.932 -18.3283 290.475C-21.133 291.023 -24.4014 290.642 -26.4504 287.726C-28.2838 285.117 -28.2391 282.15 -27.1638 279.482C-26.1256 276.906 -24.0989 274.468 -21.6326 272.328L96.9903 169.405C97.5063 163.626 97.1887 157.979 96.3761 152.37C95.3998 145.63 93.7178 138.992 91.923 132.228C91.7187 131.458 91.5129 130.686 91.3065 129.912C89.7112 123.93 88.0842 117.829 86.9094 111.627C84.2376 97.521 83.8508 82.6443 91.2191 66.1506C101.741 42.5981 127.021 30.1847 148.081 39.5927C169.14 49.0006 176.763 76.1129 166.242 99.6654C157.315 119.647 140.08 135.647 122.222 145.512C122.098 148.743 122.152 151.233 122.49 153.575C122.822 155.868 123.439 158.1 124.516 160.791C133.176 162.222 141.399 162.037 146.984 160.24C154.455 136.108 166.21 120.544 183.094 110.295C205.145 96.9092 232.998 101.08 244.967 120.797C256.932 140.508 247.788 167.133 225.752 180.523C209.832 190.555 194.666 192.242 180.807 191.47C174.528 191.12 168.482 190.262 162.82 189.459C162.274 189.381 161.731 189.304 161.193 189.228C155.007 188.356 149.34 187.622 144.062 187.663C137.537 187.714 131.805 188.951 126.696 192.47L121.306 196.182ZM145.25 166.283C143.924 171.278 142.758 176.609 141.746 182.301C135.361 182.617 129.24 184.129 123.618 188.001L-13.1077 282.164C-15.4099 283.749 -17.6287 284.809 -19.3698 285.149C-21.0786 285.483 -21.6908 285.061 -22.0107 284.606C-22.5461 283.844 -22.6915 282.902 -22.131 281.511C-21.5334 280.028 -20.1877 278.258 -18.0765 276.426L112.198 163.394C115.427 164.429 118.762 165.259 122.09 165.875C130.217 167.378 138.551 167.644 145.25 166.283ZM102.663 164.484L109.809 158.284C110.54 157.649 111.553 157.453 112.468 157.767C114.367 158.419 116.318 158.997 118.293 159.495C117.753 157.759 117.37 156.083 117.12 154.351C116.842 152.429 116.733 150.476 116.735 148.343C111.807 150.707 106.865 152.604 102.063 153.98C102.476 157.423 102.702 160.921 102.663 164.484ZM101.263 148.561C100.217 142.536 98.7063 136.635 97.1677 130.836C96.9627 130.064 96.7573 129.293 96.5524 128.524C96.5514 128.521 96.5503 128.517 96.5493 128.513C94.9485 122.509 93.376 116.61 92.2408 110.617C89.6964 97.1837 89.4028 83.5196 96.1734 68.3638C105.803 46.8077 128.229 36.6675 145.867 44.547C163.505 52.4264 170.917 75.8961 161.287 97.4521C152.738 116.59 135.85 132.095 118.303 141.466C112.564 144.531 106.791 146.92 101.263 148.561ZM147.26 182.295C148.532 175.315 150.037 168.941 151.781 163.114C158.924 139.252 170.084 124.54 185.91 114.933C206.092 102.682 230.304 107.099 240.328 123.613C250.352 140.127 243.098 163.645 222.916 175.896C222.907 175.901 222.899 175.907 222.89 175.912C222.886 175.915 222.881 175.918 222.877 175.921C208.178 185.189 194.223 186.782 181.109 186.052C175.074 185.715 169.253 184.89 163.559 184.083C163.021 184.007 162.485 183.931 161.95 183.855C156.949 183.15 152.015 182.492 147.26 182.295Z" fill="#EA9EBE"/>
<path fill-rule="evenodd" clip-rule="evenodd" d="M138.199 113.22C145.056 106.675 150.52 97.8738 153.229 91.8261C159.619 77.5596 155.065 60.8645 141.94 55.0162C128.82 49.1703 113.322 56.9215 106.933 71.1864C102.68 80.6836 99.863 91.0705 100.201 100.06C100.542 109.139 104.176 117.232 113.2 120.908C122.485 124.691 131.464 119.648 138.199 113.22ZM134.453 109.294C128.076 115.381 121.384 118.384 115.247 115.883C108.849 113.277 105.914 107.61 105.623 99.8563C105.328 92.0121 107.816 82.4904 111.885 73.4044C117.376 61.1465 130.018 55.6444 139.731 59.9726C149.439 64.2982 153.766 77.3519 148.277 89.6081C145.797 95.145 140.707 103.325 134.453 109.294Z" fill="#EA9EBE"/>
<path fill-rule="evenodd" clip-rule="evenodd" d="M218.079 166.086C209.038 171.854 199.677 175.821 191.257 176.391C182.645 176.974 174.949 173.971 170.024 165.888C164.791 157.3 168.703 147.717 174.08 140.333C179.571 132.792 187.362 126.391 192.346 123.328C205.45 115.275 222.264 117.635 229.549 129.786C236.812 141.899 231.16 158.034 218.079 166.086ZM190.891 170.977C183.944 171.447 178.357 169.135 174.658 163.064C171.266 157.498 173.339 150.569 178.466 143.527C183.48 136.641 190.713 130.701 195.187 127.951C206.406 121.057 219.549 123.658 224.895 132.576C230.26 141.524 226.445 154.575 215.218 161.475C215.205 161.483 215.191 161.492 215.178 161.5C206.493 167.044 198.025 170.494 190.891 170.977Z" fill="#EA9EBE"/>
<path d="M114.089 184.377C114.407 181.397 112.249 178.724 109.269 178.406C106.289 178.088 103.615 180.246 103.297 183.226C102.98 186.206 105.138 188.879 108.117 189.197C111.097 189.515 113.771 187.357 114.089 184.377Z" fill="#EA9EBE"/>
<path fill-rule="evenodd" clip-rule="evenodd" d="M442.757 -5.9127L335.703 31.5462C327.706 36.2525 323.515 46.1928 322.456 56.605L449.97 12.7377C449.975 12.736 449.98 12.7342 449.985 12.7325C453.475 11.4827 455.612 9.43411 456.681 7.20932C457.757 4.97236 457.869 2.32369 456.884 -0.343398C455.908 -2.98376 454.182 -4.77802 451.92 -5.73862C449.633 -6.70969 446.551 -6.92767 442.757 -5.9127ZM317.751 72.5171C316.981 68.6906 316.635 64.4388 316.774 60.1006C317.175 47.623 321.679 33.3181 333.204 26.7219C333.905 26.3209 334.629 25.9501 335.378 25.6115C328.514 20.2266 320.074 19.0752 312.71 21.0294C304.114 23.3106 297.328 29.7 296.057 38.1828C295.834 39.6743 295.783 41.4171 295.928 43.3351C296.336 48.7119 298.255 55.1046 301.646 60.571C305.417 66.6509 310.813 71.3191 317.751 72.5171ZM341.494 23.773L441.049 -11.0622C441.11 -11.0835 441.172 -11.1027 441.234 -11.1196C445.947 -12.4008 450.36 -12.2951 454.052 -10.7275C457.787 -9.1416 460.53 -6.16223 461.988 -2.21801C463.436 1.69949 463.354 5.87946 461.587 9.55341C459.816 13.2364 456.465 16.1784 451.805 17.8427L451.775 17.8531L350.578 52.6669C346.917 64.7061 337.307 78.08 321.39 78.2385C321.36 78.2395 321.331 78.2399 321.302 78.2399C321.269 78.2399 321.236 78.2399 321.204 78.2398C321.17 78.2399 321.137 78.2399 321.104 78.2399C321.073 78.2399 321.042 78.2394 321.012 78.2384C310.596 78.1293 302.869 72.1419 297.858 64.7194C295.438 64.7311 293.11 64.7128 290.899 64.6954C286.542 64.6611 282.638 64.6304 279.382 64.8402C276.762 65.009 274.937 65.3211 273.836 65.7607C273.448 65.9159 273.25 66.0487 273.161 66.1202C273.165 66.2751 273.18 66.3775 273.193 66.4398C273.216 66.4495 273.245 66.461 273.281 66.4737C273.546 66.5664 273.994 66.6526 274.734 66.7C275.464 66.7468 276.304 66.7479 277.332 66.7479C281.923 66.7479 285.318 68.18 287.464 70.4675C289.562 72.7048 290.283 75.5997 289.753 78.0238C288.735 82.6734 284.606 85.5512 280.177 87.1299C275.637 88.7483 270.047 89.3009 264.683 88.8474C259.333 88.3951 253.909 86.9167 249.81 84.1951C245.652 81.4351 242.695 77.2432 243.025 71.6518C243.062 67.1633 245.835 62.818 249.72 59.2616C253.7 55.6183 259.211 52.4485 265.541 50.3495L290.409 41.6479C290.389 40.1585 290.476 38.7251 290.677 37.3817C292.334 26.3251 301.081 18.504 311.31 15.7894C321.198 13.1654 332.791 15.197 341.494 23.773ZM290.928 47.2132L267.321 55.4736C267.307 55.4786 267.292 55.4836 267.278 55.4884C261.556 57.3828 256.738 60.1999 253.4 63.2556C249.988 66.3787 248.465 69.4155 248.465 71.7412C248.465 71.7996 248.463 71.858 248.459 71.9163C248.251 75.1244 249.807 77.6781 252.825 79.6818C255.922 81.738 260.369 83.0407 265.142 83.4442C269.9 83.8464 274.684 83.3293 278.346 82.024C282.119 80.679 284.02 78.779 284.438 76.8681C284.569 76.2699 284.429 75.1714 283.49 74.1709C282.599 73.2206 280.782 72.1705 277.332 72.1705C277.238 72.1705 277.142 72.1706 277.046 72.1707C275.283 72.1725 273.147 72.1747 271.476 71.5891C270.481 71.2401 269.453 70.6275 268.711 69.5514C267.978 68.4901 267.72 67.2616 267.72 66.0364C267.72 64.725 268.179 63.5448 269.017 62.5944C269.802 61.7029 270.819 61.1239 271.813 60.727C273.763 59.9484 276.321 59.6035 279.031 59.4289C282.457 59.2081 286.728 59.24 291.265 59.2738C292.417 59.2823 293.588 59.2911 294.765 59.2958C292.869 55.3299 291.587 51.1536 290.928 47.2132ZM323.848 72.6433C333.48 71.405 340.347 63.7225 344 54.9298L324.476 61.6465C324.132 64.9926 323.918 68.6539 323.848 72.6433Z" fill="#EA9EBE"/>
<path fill-rule="evenodd" clip-rule="evenodd" d="M239.763 238.689L221.646 234.457L223.762 225.399L229.046 226.633L228.165 230.408L235.713 232.171L236.595 228.396C239.027 217.982 247.085 211.698 255.119 210.929C263.248 210.152 270.185 214.19 275.034 220.058C280.308 226.44 283.883 234.119 287.13 242.438C288.095 244.91 289.041 247.472 290 250.069C292.19 255.997 294.446 262.104 297.142 267.738L297.501 268.489C302.165 278.239 307.817 290.055 315.516 299.759C323.466 309.779 333.931 317.972 348.205 319.247C349.524 319.365 350.811 319.384 352.065 319.315C366.23 360.632 407.715 382.972 450.622 378.4C451.135 378.346 451.649 378.287 452.162 378.225L456.01 377.757L455.075 370.062L451.227 370.53C413.075 375.165 376.603 356.893 361.735 322.797C361.018 321.151 360.35 319.468 359.736 317.75C359.759 317.742 359.781 317.733 359.804 317.725C363.979 316.226 367.724 313.825 371.072 311.08C374.43 308.326 378.562 304.753 381.931 300.562C385.282 296.393 388.16 291.268 388.475 285.41C388.753 280.248 386.253 275.021 382.596 271.49C378.891 267.911 373.374 265.519 367.436 267.312C358.742 269.939 353.502 277.348 350.801 285.08C348.404 291.943 347.776 299.639 348.662 306.048C348.777 306.88 348.917 307.689 349.082 308.473C349.102 308.567 349.122 308.661 349.142 308.755C349.346 309.707 349.563 310.65 349.794 311.585C349.496 311.573 349.196 311.553 348.894 311.526C347.212 311.376 345.588 311.106 344.019 310.726C334.965 308.535 327.727 302.678 321.588 294.941C314.44 285.932 309.111 274.793 304.348 264.839L304.134 264.392C301.596 259.089 299.55 253.547 297.426 247.792L297.426 247.791C296.437 245.112 295.431 242.388 294.351 239.619C291.028 231.104 287.093 222.482 281.009 215.12C275.031 207.886 265.774 202.123 254.381 203.213C243.325 204.27 233.007 212.468 229.433 225.132C229.294 225.624 229.165 226.123 229.047 226.629L229.046 226.633L223.762 225.399C227.425 209.716 239.958 199.142 253.865 197.811C267.548 196.503 278.427 203.478 285.192 211.664C291.842 219.711 296.028 228.993 299.406 237.647C300.504 240.462 301.525 243.226 302.509 245.892L302.517 245.913C304.657 251.71 306.618 257.012 309.029 262.05L309.242 262.496C314.058 272.561 319.138 283.122 325.839 291.568C330.945 298.003 336.526 302.616 343.058 304.806C342.426 297.984 343.243 290.263 345.678 283.291C348.685 274.684 354.866 265.441 365.867 262.118C374.217 259.596 381.695 263.076 386.366 267.586C390.928 271.993 394.272 278.679 393.894 285.702C393.492 293.165 389.856 299.363 386.16 303.962C382.422 308.612 377.925 312.478 374.512 315.276C372.16 317.204 369.555 319.04 366.688 320.576C380.475 352.232 414.453 369.532 450.573 365.143L459.807 364.021L462.051 382.489L452.817 383.611C408.463 389.001 364.686 366.929 348.256 324.695C348.078 324.682 347.9 324.668 347.722 324.652C331.426 323.196 319.737 313.809 311.265 303.132C303.185 292.947 297.315 280.676 292.712 271.051L292.247 270.08C289.442 264.219 287.114 257.916 284.953 252.066L284.91 251.949C283.948 249.344 283.019 246.829 282.075 244.41C278.882 236.229 275.558 229.21 270.851 223.515C266.798 218.61 261.486 215.771 255.636 216.331C250.016 216.868 243.804 221.39 241.879 229.631L239.763 238.689ZM361.495 301.851C361.898 301.547 362.305 301.226 362.717 300.889C365.947 298.241 369.19 295.379 371.66 292.306C374.17 289.183 375.211 286.663 375.317 284.702C375.33 284.453 375.272 283.885 374.934 283.11C374.607 282.361 374.096 281.601 373.442 280.969C372.135 279.706 371.384 279.886 371.247 279.927C368.132 280.868 365.189 283.851 363.242 289.426C361.824 293.485 361.304 297.994 361.495 301.851ZM362.437 307.804C363.693 307.003 364.931 306.091 366.157 305.085C369.439 302.394 373.049 299.239 375.889 295.706C378.746 292.151 380.543 288.558 380.735 284.993C380.87 282.483 379.57 279.343 377.212 277.066C374.902 274.835 372.188 273.975 369.678 274.733C364.27 276.366 360.379 281.166 358.119 287.637C356.125 293.345 355.63 299.783 356.333 304.936C356.424 305.605 356.536 306.252 356.667 306.873C356.912 308.037 357.18 309.187 357.47 310.324C359.163 309.692 360.815 308.84 362.437 307.804Z" fill="#EA9EBE"/>
</g>
<defs>
<clipPath id="clip0_462_1143">
<rect width="402" height="383" fill="white"/>
</clipPath>
</defs>
</svg>
