<svg width="80" height="87" viewBox="0 0 80 87" fill="none" xmlns="http://www.w3.org/2000/svg">
<path d="M53.3535 44.7381C53.3535 40.7213 52.1562 36.9789 49.8223 34.2664C47.5162 31.5865 43.9982 29.7879 39.0674 29.7879C32.8657 29.7879 28.2295 31.3975 25.1689 33.9979C22.1345 36.576 20.5 40.2522 20.5 44.7381C20.5002 55.5354 28.637 62.7498 39.0674 62.7498C45.1217 62.7498 50.2352 60.8936 53.8125 57.7566C57.3733 54.6343 59.4999 50.1708 59.5 44.7381C59.5 39.1374 58.0118 34.2182 55.0146 30.6248C52.0399 27.0583 47.4494 24.6404 40.9102 24.2469C40.0833 24.1971 39.4533 23.4868 39.5029 22.66C39.5527 21.8331 40.263 21.2031 41.0898 21.2527C48.3281 21.6883 53.7376 24.4107 57.3184 28.7039C60.8768 32.9703 62.5 38.6315 62.5 44.7381C62.4999 51.0122 60.0171 56.3049 55.79 60.0115C51.5793 63.7038 45.7261 65.7498 39.0674 65.7498C27.1476 65.7498 17.5002 57.3549 17.5 44.7381C17.5 39.4678 19.4515 34.9192 23.2266 31.7117C26.9755 28.5265 32.3725 26.7879 39.0674 26.7879C44.8007 26.7879 49.1757 28.9156 52.0967 32.3104C54.9897 35.6728 56.3535 40.1561 56.3535 44.7381C56.3532 53.8114 48.2572 59.8963 39.0674 59.8963C30.5645 59.8963 23.6467 53.4678 23.6465 45.532C23.6465 37.7981 30.9203 32.096 39.7236 33.4998C40.5417 33.6303 41.0992 34.3995 40.9688 35.2176C40.8383 36.0355 40.0699 36.5929 39.252 36.4627C31.932 35.2953 26.6465 39.9707 26.6465 45.532C26.6467 51.6177 32.0212 56.8963 39.0674 56.8963C47.1084 56.8963 53.3532 51.6886 53.3535 44.7381Z" fill="#322D41"/>
</svg>
