<svg width="83" height="67" viewBox="0 0 83 67" fill="none" xmlns="http://www.w3.org/2000/svg">
<path fill-rule="evenodd" clip-rule="evenodd" d="M45.0127 59.8055C59.2535 58.222 69.4247 47.1273 73.7678 34.9197C76.103 28.3555 76.5902 21.8552 75.3035 16.8498C74.048 11.9659 71.2044 8.68743 66.6959 7.55595C61.6253 6.28338 58.1891 7.29307 55.5941 9.48703C52.7905 11.8572 50.5406 15.9759 48.8664 21.6905C45.8027 32.1479 45.1079 46.3286 45.0127 59.8055ZM41.5002 22.1087C41.7045 21.2977 41.9204 20.5017 42.1487 19.7224C43.9809 13.4686 46.7402 7.80604 51.0747 4.14145C55.6177 0.300608 61.4484 -0.978101 68.3999 0.766503C75.9134 2.65218 80.3331 8.29944 82.0831 15.107C83.8019 21.7932 83.0367 29.75 80.3628 37.266C75.0367 52.2371 61.4859 66.9987 41.5002 66.9986C21.5146 66.9987 7.96378 52.2371 2.63762 37.266C-0.0362711 29.75 -0.801403 21.7932 0.917388 15.107C2.6674 8.29944 7.08704 2.65218 14.6006 0.766503C21.552 -0.978101 27.3828 0.300608 31.9258 4.14145C36.2603 7.80604 39.0195 13.4686 40.8517 19.7224C41.08 20.5017 41.296 21.2977 41.5002 22.1087ZM37.9878 59.8055C37.8926 46.3286 37.1978 32.1479 34.1341 21.6905C32.4599 15.9759 30.2099 11.8572 27.4064 9.48703C24.8113 7.29307 21.3751 6.28338 16.3045 7.55595C11.7961 8.68743 8.95245 11.9659 7.69696 16.8498C6.41025 21.8552 6.89741 28.3555 9.23269 34.9197C13.5757 47.1273 23.7469 58.222 37.9878 59.8055Z" fill="#EFECE2"/>
</svg>
