<svg width="150" height="123" viewBox="0 0 150 123" fill="none" xmlns="http://www.w3.org/2000/svg">
<path fill-rule="evenodd" clip-rule="evenodd" d="M100.12 27.7733C102.023 29.1017 104.287 30.4051 106.353 31.132C107.909 31.6798 109.121 31.8157 109.92 31.6167C110.286 31.5256 110.549 31.3694 110.753 31.151C110.961 30.9265 111.179 30.5566 111.32 29.9301C111.462 29.3016 111.418 28.8923 111.331 28.629C111.247 28.3769 111.089 28.1527 110.808 27.9414C110.18 27.4699 109.023 27.1331 107.353 27.0444C105.124 26.926 102.455 27.2694 100.12 27.7733ZM96.5695 25.4639C99.5129 24.5744 103.901 23.7352 107.518 23.9273C109.376 24.026 111.3 24.4076 112.682 25.4451C113.405 25.9884 113.985 26.7163 114.293 27.6465C114.598 28.5655 114.601 29.5685 114.366 30.6149C114.13 31.6633 113.697 32.5678 113.038 33.2766C112.374 33.9913 111.553 34.427 110.674 34.6457C108.985 35.0661 107.068 34.693 105.317 34.0764C101.925 32.8826 98.2718 30.4561 95.9546 28.5241L53.2663 20.0835C52.4207 19.9163 51.8708 19.0953 52.0379 18.2497C52.2051 17.4041 53.0262 16.8542 53.8717 17.0214L96.5695 25.4639Z" fill="#322D41" fill-opacity="0.5"/>
<path fill-rule="evenodd" clip-rule="evenodd" d="M106.109 59.5348L120.159 70.6499L122.157 68.1242L108.082 56.989L108.069 56.9794C106.031 55.4309 103.299 54.8441 100.656 55.644C96.2783 56.9688 93.8036 61.5915 95.1284 65.9689L98.9932 78.7388C100.318 83.1163 104.941 85.591 109.318 84.2661C113.696 82.9413 116.17 78.3187 114.845 73.9412L113.317 68.8904C112.836 67.3024 111.159 66.4047 109.571 66.8853L104.521 68.4139C102.696 68.9659 101.203 70.0906 100.177 71.5316L98.2108 65.0361C97.4012 62.3609 98.9135 59.536 101.589 58.7264C103.197 58.2396 104.859 58.5906 106.109 59.5348ZM102.076 77.8059C101.266 75.1308 102.778 72.3059 105.453 71.4963L110.297 70.0303L111.763 74.8741C112.573 77.5492 111.06 80.3741 108.385 81.1838C105.71 81.9934 102.885 80.4811 102.076 77.8059Z" fill="#322D41" fill-opacity="0.5"/>
<path d="M31.3201 16.8402L29.7613 21.5541C29.3577 22.7754 28.9495 23.9871 28.5465 25.1819C24.6244 36.8115 21.3662 46.7419 24.3598 57.2006C26.4133 64.3747 31.762 69.882 38.7034 71.3464C40.4149 71.7075 42.2982 71.755 44.2594 71.5253C43.9114 69.561 43.6862 67.576 43.5969 65.5881C43.3113 59.2249 44.6662 51.2348 51.2553 46.0409C53.6772 44.1318 57.0987 42.5048 60.6572 41.9599C64.2135 41.4154 68.78 41.8689 72.1785 45.4164C74.9883 48.3492 76.0696 51.8527 75.8256 55.3576C75.5957 58.6599 74.2196 61.7011 72.6334 64.202C69.4783 69.1764 64.5933 73.4152 61.2504 75.5611C59.7785 76.5059 58.1751 77.3835 56.4816 78.1624C57.4239 80.4236 58.565 82.5939 59.876 84.6152C61.9439 87.8035 64.9373 90.8708 68.0949 93.0627C70.7817 94.9278 72.6969 95.8372 77.3773 97.6063L82.0197 99.3609L78.4782 108.609L73.8606 106.864C68.8521 104.971 66.0811 103.724 62.4353 101.193C58.2496 98.2877 54.3449 94.2989 51.5614 90.0073C49.764 87.2359 48.2256 84.2466 46.9911 81.1271C43.6021 81.695 40.0711 81.7534 36.6424 81.0301C25.5952 78.6994 17.7422 70.0861 14.8367 59.9357C10.8932 46.158 15.3594 33.2363 19.136 22.095C19.5524 20.8668 19.9614 19.6597 20.3567 18.4636L21.9063 13.7759L31.3201 16.8402ZM23.205 19.406C22.8056 20.6144 22.3929 21.8316 21.9773 23.0576C18.1518 34.3429 14.0744 46.3716 17.7206 59.1105C20.3675 68.3576 27.4604 76.0264 37.2613 78.0943C41.0498 78.8936 45.077 78.6204 48.9173 77.6658C50.1912 81.4557 51.9425 85.0813 54.0781 88.3742C56.6442 92.3307 60.2722 96.0395 64.1459 98.7285C67.5009 101.057 70.0122 102.202 74.9213 104.058L76.7445 104.747L78.1411 101.102L76.3165 100.412C71.5369 98.6057 69.3618 97.5939 66.3838 95.5266C62.9141 93.1181 59.644 89.7709 57.3587 86.2474C55.4122 83.2461 53.8169 79.9471 52.6524 76.5088C55.1796 75.5705 57.5525 74.3702 59.6306 73.0362C62.6921 71.0709 67.2274 67.1233 70.0994 62.5954C71.539 60.3257 72.6504 57.7711 72.8329 55.1498C73.021 52.449 72.2104 49.7852 70.0125 47.491C67.54 44.9104 64.1238 44.4638 61.111 44.9251C58.101 45.3861 55.157 46.7853 53.1128 48.3967C47.6338 52.7154 46.3262 59.4988 46.5936 65.4537C46.721 68.2922 47.1448 71.1363 47.8302 73.9235C44.5353 74.7216 41.1605 74.9304 38.084 74.2814C29.8997 72.5546 23.7894 66.107 21.4764 58.0266C18.1835 46.5228 21.839 35.6845 25.7043 24.2233C26.1077 23.0271 26.5133 21.8238 26.9136 20.6126L27.5254 18.76L23.8176 17.5528L23.205 19.406ZM55.5259 51.451C57.0754 50.2297 59.3951 49.1283 61.6885 48.7771C63.979 48.4264 65.9055 48.8557 67.1843 50.1905C68.5927 51.6605 69.0527 53.2373 68.9374 54.8947C68.8164 56.6316 68.0503 58.5537 66.8026 60.5207C64.3003 64.4659 60.2201 68.0334 57.5273 69.7619C55.7164 70.9243 53.6923 71.9497 51.5686 72.7587C50.974 70.2833 50.6069 67.7667 50.4945 65.264C50.251 59.8387 51.4971 54.6267 55.5259 51.451ZM62.1423 51.7424C60.3971 52.0096 58.5542 52.8837 57.3825 53.8073C54.4603 56.1109 53.2671 60.1203 53.492 65.1291C53.5416 66.2354 53.6467 67.3474 53.8027 68.4597C54.5326 68.0747 55.2368 67.6664 55.9061 67.2367C58.3174 65.6889 62.05 62.4128 64.2694 58.9136C65.3702 57.1782 65.8712 55.7428 65.9447 54.6868C66.004 53.835 65.8159 53.0981 65.0188 52.2659C64.6574 51.8888 63.8722 51.4775 62.1423 51.7424Z" fill="#322D41" fill-opacity="0.5"/>
</svg>
