<svg width="80" height="87" viewBox="0 0 80 87" fill="none" xmlns="http://www.w3.org/2000/svg">
<path d="M38.5 65.5V52.9746L33.0967 49.4199C32.4046 48.9646 32.2126 48.0338 32.668 47.3418C33.1234 46.65 34.0532 46.4588 34.7451 46.9141L38.5 49.3838V44.2393L33.0078 40.0234C32.3507 39.519 32.227 38.577 32.7314 37.9199C33.2359 37.263 34.1769 37.1394 34.834 37.6436L38.5 40.457V35.6406L33.0967 32.0859C32.4047 31.6305 32.2126 30.7008 32.668 30.0088C33.1233 29.3169 34.0531 29.1251 34.7451 29.5801L38.5 32.0498V23H23.5C22.6716 23 22 22.3284 22 21.5C22 20.6716 22.6716 20 23.5 20H56.5C57.3284 20 58 20.6716 58 21.5C58 22.3284 57.3284 23 56.5 23H41.5V34.0244L46.9033 37.5801C47.5954 38.0354 47.7874 38.9662 47.332 39.6582C46.8766 40.35 45.9468 40.5412 45.2549 40.0859L41.5 37.6152V42.7598L46.9922 46.9766C47.6493 47.481 47.773 48.423 47.2686 49.0801C46.7641 49.737 45.8231 49.8606 45.166 49.3564L41.5 46.542V51.3584L46.9033 54.9141C47.5953 55.3695 47.7874 56.2992 47.332 56.9912C46.8767 57.6831 45.9469 57.8749 45.2549 57.4199L41.5 54.9492V65.5C41.5 66.3284 40.8284 67 40 67C39.1716 67 38.5 66.3284 38.5 65.5Z" fill="#322D41"/>
</svg>
